<?xml version="1.0" encoding="UTF-8"?>
<svg width="36px" height="36px" viewBox="0 0 36 36" version="1.1" xmlns="http://www.w3.org/2000/svg" xmlns:xlink="http://www.w3.org/1999/xlink">
    <!-- Generator: Sketch 50.2 (55047) - http://www.bohemiancoding.com/sketch -->
    <title>github</title>
    <desc>Created with Sketch.</desc>
    <defs></defs>
    <g id="Page-1" stroke="none" stroke-width="1" fill="none" fill-rule="evenodd">
        <g id="iPhone-8" transform="translate(-86.000000, -338.000000)" fill="#33383A">
            <g id="github" transform="translate(91.000000, 343.000000)">
                <g id="Group-4">
                    <path d="M12.999202,0 C5.8208717,0 0,5.82007366 0,13.000798 C0,18.7434622 3.72443217,23.6154696 8.89091467,25.3352363 C9.54131369,25.4541436 9.77833026,25.0527317 9.77833026,24.7079804 C9.77833026,24.3999386 9.76715777,23.5819521 9.76077348,22.4974217 C6.14487416,23.2826888 5.38195212,20.754512 5.38195212,20.754512 C4.79060773,19.252609 3.93830571,18.8535912 3.93830571,18.8535912 C2.75801105,18.0467772 4.0276857,18.0627379 4.0276857,18.0627379 C5.33247391,18.15531 6.01878453,19.4026397 6.01878453,19.4026397 C7.17833026,21.3889503 9.06089626,20.8151627 9.80227133,20.4831799 C9.9203806,19.6428484 10.2555556,19.0698588 10.6274401,18.7450583 C7.74094537,18.4170657 4.70601596,17.3014119 4.70601596,12.3200737 C4.70601596,10.9011664 5.21276857,9.74082259 6.04432167,8.83186004 C5.91025169,8.50306937 5.46414979,7.18152241 6.17120933,5.39152855 C6.17120933,5.39152855 7.26292204,5.04198895 9.74640884,6.724248 C10.7830571,6.43535912 11.8955187,6.29171271 13.000798,6.28612646 C14.1044813,6.29171271 15.2169429,6.43535912 16.2551872,6.724248 C18.737078,5.04198895 19.8263966,5.39152855 19.8263966,5.39152855 C20.5358502,7.18152241 20.0897483,8.50306937 19.9556783,8.83186004 C20.7888275,9.74082259 21.292388,10.9011664 21.292388,12.3200737 C21.292388,17.3141805 18.2526703,18.4130755 15.3565991,18.7346839 C15.82345,19.1360958 16.2392265,19.9293432 16.2392265,21.1423573 C16.2392265,22.8796808 16.2232658,24.2818293 16.2232658,24.7079804 C16.2232658,25.0559239 16.4570902,25.4605279 17.1170657,25.3336403 C22.2779619,23.6106814 26,18.7418662 26,13.000798 C26,5.82007366 20.1791283,0 12.999202,0" id="Fill-1"></path>
                </g>
            </g>
        </g>
    </g>
</svg>