<?xml version="1.0" encoding="UTF-8"?>
<svg width="36px" height="36px" viewBox="0 0 36 36" version="1.1" xmlns="http://www.w3.org/2000/svg" xmlns:xlink="http://www.w3.org/1999/xlink">
    <!-- Generator: Sketch 50.2 (55047) - http://www.bohemiancoding.com/sketch -->
    <title>hatena</title>
    <desc>Created with Sketch.</desc>
    <defs></defs>
    <g id="Page-1" stroke="none" stroke-width="1" fill="none" fill-rule="evenodd">
        <g id="iPhone-8" transform="translate(-257.000000, -338.000000)" fill="#33383A" fill-rule="nonzero">
            <g id="blog" transform="translate(262.000000, 343.000000)">
                <g id="logo-icon">
                    <path d="M12.8970297,25.7940594 C5.79207921,25.7940594 0,20.0019802 0,12.8970297 C0,5.79207921 5.79207921,0 12.8970297,0 C20.0019802,0 25.7940594,5.79207921 25.7940594,12.8970297 C25.7683168,20.0019802 20.0019802,25.7940594 12.8970297,25.7940594 Z M12.8970297,1.64752475 C6.69306931,1.64752475 1.64752475,6.69306931 1.64752475,12.8970297 C1.64752475,19.1009901 6.69306931,24.1465347 12.8970297,24.1465347 C19.1009901,24.1465347 24.1465347,19.1009901 24.1465347,12.8970297 C24.1465347,6.69306931 19.1009901,1.64752475 12.8970297,1.64752475 Z" id="Shape"></path>
                    <path d="M14.390099,6.51287129 C13.7722772,5.22574257 13.3861386,3.99009901 13.180198,3.26930693 L13.180198,12.4079208 C13.4891089,12.5366337 13.7207921,12.819802 13.7207921,13.180198 C13.7207921,13.6435644 13.3346535,14.029703 12.8712871,14.029703 C12.4079208,14.029703 12.0217822,13.6435644 12.0217822,13.180198 C12.0217822,12.7940594 12.2792079,12.4851485 12.6138614,12.3821782 L12.6138614,3.26930693 C12.4079208,3.99009901 12.0475248,5.22574257 11.4039604,6.51287129 C10.4257426,8.52079208 9.19009901,10.2712871 9.19009901,10.2712871 L9.98811881,21.0316832 C9.98811881,21.0316832 10.7346535,21.8554455 12.8970297,21.8554455 C15.0594059,21.8554455 15.8059406,21.0316832 15.8059406,21.0316832 L16.6039604,10.2712871 C16.6039604,10.2712871 15.3683168,8.52079208 14.390099,6.51287129 Z" id="Shape"></path>
                </g>
            </g>
        </g>
    </g>
</svg>