<?xml version="1.0" encoding="UTF-8"?>
<svg width="36px" height="36px" viewBox="0 0 36 36" version="1.1" xmlns="http://www.w3.org/2000/svg" xmlns:xlink="http://www.w3.org/1999/xlink">
    <!-- Generator: Sketch 50.2 (55047) - http://www.bohemiancoding.com/sketch -->
    <title>nippo</title>
    <desc>Created with Sketch.</desc>
    <defs></defs>
    <g id="Page-1" stroke="none" stroke-width="1" fill="none" fill-rule="evenodd">
        <g id="iPhone-8" transform="translate(-201.000000, -338.000000)" fill="#33383A" fill-rule="nonzero">
            <g id="nippo" transform="translate(206.000000, 344.000000)">
                <g id="nippoIcon-Copy">
                    <g id="nippoIcon" transform="translate(12.457487, 12.021785) scale(-1, 1) rotate(-180.000000) translate(-12.457487, -12.021785) translate(0.002487, 0.132922)">
                        <path d="M24.5094879,17.724075 C24.9080056,17.1561872 24.9976721,16.5135774 24.7784874,15.7962456 L20.6687735,2.25660651 C20.4794776,1.61897818 20.0983951,1.08347001 19.5255259,0.650082008 C18.9526567,0.216694003 18.3424264,0 17.6948352,0 L3.90114107,0 C3.13399449,0 2.394246,0.266508716 1.6818956,0.799526147 C0.969545198,1.33254358 0.473888801,1.98760706 0.194926407,2.76471658 C-0.0441842166,3.43223374 -0.0541471592,4.0648806 0.165037579,4.66265716 C0.165037579,4.70250893 0.179981993,4.83700865 0.209870821,5.06615634 C0.239759649,5.29530402 0.259685534,5.47961845 0.269648477,5.61909965 C0.279611419,5.69880319 0.264667005,5.80590483 0.224815235,5.94040455 C0.184963464,6.07490428 0.17001905,6.17204297 0.179981993,6.23182062 C0.199907878,6.34141299 0.239759649,6.44602389 0.299537305,6.54565332 C0.359314961,6.64528274 0.441509237,6.76234732 0.546120135,6.89684705 C0.650731033,7.03134677 0.73292531,7.14841135 0.792702966,7.24804077 C1.02185065,7.62663259 1.24601686,8.08243722 1.46520159,8.61545465 C1.68438633,9.14847208 1.83383047,9.60427671 1.91353401,9.98286853 C1.94342284,10.082498 1.94591358,10.2319421 1.92100622,10.4312009 C1.89609886,10.6304598 1.89360813,10.769941 1.91353401,10.8496445 C1.94342284,10.9592369 2.02810785,11.0987181 2.16758905,11.2680881 C2.30707025,11.4374582 2.39175526,11.552032 2.42164409,11.6118097 C2.63086588,11.9704756 2.84008768,12.4287709 3.04930947,12.9866957 C3.25853127,13.5446205 3.38306805,13.9929529 3.42291982,14.331693 C3.43288277,14.4213595 3.42042909,14.5807666 3.38555879,14.8099142 C3.35068849,15.0390619 3.35317923,15.1785431 3.393031,15.2283578 C3.43288277,15.3578761 3.54247514,15.509811 3.7218081,15.6841625 C3.90114107,15.858514 4.01073344,15.9705971 4.05058521,16.0204118 C4.23988112,16.2794483 4.45159365,16.7003826 4.6857228,17.2832148 C4.91985196,17.8660469 5.05684242,18.3467589 5.09669419,18.7253507 C5.10665713,18.8050542 5.09171272,18.9320818 5.05186095,19.1064333 C5.01200918,19.2807848 5.00204623,19.4127937 5.02197212,19.5024602 C5.041898,19.5821638 5.08673125,19.6718303 5.15647184,19.7714597 C5.22621244,19.8710891 5.31587893,19.9856629 5.4254713,20.1151812 C5.53506366,20.2446995 5.61974868,20.3493104 5.67952633,20.4290139 C5.75922987,20.5485692 5.84142415,20.7005041 5.92610916,20.8848185 C6.01079418,21.069133 6.08551625,21.2434845 6.15027537,21.407873 C6.2150345,21.5722616 6.29473804,21.7515945 6.389386,21.9458719 C6.48403395,22.1401493 6.58117264,22.2995564 6.68080207,22.4240932 C6.7804315,22.5486299 6.91244049,22.6656945 7.07682904,22.7752869 C7.24121759,22.8848793 7.42055056,22.9421662 7.61482794,22.9471476 C7.80910532,22.9521291 8.04572521,22.924731 8.32468761,22.8649534 L8.30974319,22.8201201 C8.68833501,22.9097866 8.94239005,22.9546199 9.0719083,22.9546199 L20.4446073,22.9546199 C21.1818651,22.9546199 21.7497528,22.6756575 22.1482705,22.1177327 C22.5467882,21.5598079 22.6364547,20.9122166 22.41727,20.1749589 L18.3225005,6.6353198 C17.9638346,5.44972963 17.6076594,4.68507378 17.253975,4.34135226 C16.9002905,3.99763074 16.2601714,3.82576998 15.3336178,3.82576998 L2.34692202,3.82576998 C2.07792257,3.82576998 1.88862666,3.75104791 1.77903429,3.60160377 C1.66944192,3.44219668 1.66446045,3.22799342 1.76408987,2.95899397 C2.0032005,2.26158798 2.72053237,1.91288499 3.91608548,1.91288499 L17.7097796,1.91288499 C17.9987049,1.91288499 18.2776673,1.99009779 18.5466668,2.1445234 C18.8156662,2.29894902 18.9900177,2.50568008 19.0697212,2.76471658 L23.5530454,17.5148532 C23.622786,17.7340379 23.6476934,18.0179818 23.6277675,18.3666848 C24.0063593,18.2172406 24.3002661,18.0030374 24.5094879,17.724075 Z M8.60863147,17.6941861 C8.5687797,17.5646679 8.57874264,17.4525848 8.6385203,17.3579368 C8.69829795,17.2632889 8.79792738,17.2159649 8.93740858,17.2159649 L18.0236123,17.2159649 C18.1531305,17.2159649 18.280158,17.2632889 18.4046948,17.3579368 C18.5292316,17.4525848 18.6114259,17.5646679 18.6512777,17.6941861 L18.9651104,18.6506286 C19.0049621,18.7801469 18.9949992,18.89223 18.9352215,18.9868779 C18.8754439,19.0815259 18.7758144,19.1288499 18.6363332,19.1288499 L9.55012955,19.1288499 C9.4206113,19.1288499 9.29358378,19.0815259 9.16904699,18.9868779 C9.04451021,18.89223 8.96231593,18.7801469 8.92246416,18.6506286 L8.60863147,17.6941861 Z M7.36824511,13.8684162 C7.32839334,13.7388979 7.33835628,13.6268148 7.39813394,13.5321668 C7.4579116,13.4375189 7.55754102,13.3901949 7.69702222,13.3901949 L16.7832259,13.3901949 C16.9127442,13.3901949 17.0397717,13.4375189 17.1643085,13.5321668 C17.2888453,13.6268148 17.3710395,13.7388979 17.4108913,13.8684162 L17.724724,14.8248587 C17.7645758,14.9543769 17.7546128,15.06646 17.6948352,15.161108 C17.6350575,15.2557559 17.5354281,15.3030799 17.3959469,15.3030799 L8.30974319,15.3030799 C8.18022494,15.3030799 8.05319742,15.2557559 7.92866064,15.161108 C7.80412385,15.06646 7.72192958,14.9543769 7.6820778,14.8248587 L7.36824511,13.8684162 Z"></path>
                    </g>
                </g>
            </g>
        </g>
    </g>
</svg>