<?xml version="1.0" encoding="UTF-8"?>
<svg width="36px" height="36px" viewBox="0 0 36 36" version="1.1" xmlns="http://www.w3.org/2000/svg" xmlns:xlink="http://www.w3.org/1999/xlink">
    <!-- Generator: Sketch 50.2 (55047) - http://www.bohemiancoding.com/sketch -->
    <title>hatena copy</title>
    <desc>Created with Sketch.</desc>
    <defs></defs>
    <g id="Page-1" stroke="none" stroke-width="1" fill="none" fill-rule="evenodd">
        <g id="iPhone-8" transform="translate(-310.000000, -338.000000)" fill="#33383A" fill-rule="nonzero">
            <g id="speakerdeck" transform="translate(315.000000, 348.000000)">
                <path d="M10.8603149,10.15625 L5.078125,10.15625 C2.27355399,10.15625 0,7.88269601 0,5.078125 C0,2.27355399 2.27355399,0 5.078125,0 L11.8240132,0 C12.9458416,0 13.8552632,0.909421581 13.8552632,2.03125 C13.8552632,3.15307842 12.9458416,4.0625 11.8240132,4.0625 L4.97427166,4.0625 C4.41335741,4.0625 3.95864666,4.51721083 3.95864666,5.078125 C3.95864666,5.63903917 4.41335741,6.09375 4.97427166,6.09375 L10.7564615,6.09375 C13.5610325,6.09375 15.8345865,8.36730399 15.8345865,11.171875 C15.8345865,13.976446 13.5610325,16.25 10.7564615,16.25 L2.03125,16.25 C0.909421581,16.25 0,15.3405784 0,14.21875 C0,13.0969216 0.909421581,12.1875 2.03125,12.1875 L10.8603149,12.1875 C11.4212291,12.1875 11.8759399,11.7327892 11.8759399,11.171875 C11.8759399,10.6109608 11.4212291,10.15625 10.8603149,10.15625 Z M15.1341971,16.25 C16.4849171,15.3365131 17.4503118,13.8803407 17.7295259,12.1875 L21.0075361,12.1875 C21.5589884,12.1875 22.0060289,11.7327892 22.0060289,11.171875 L22.0060289,5.078125 C22.0060289,4.51721083 21.5589884,4.0625 21.0075361,4.0625 L15.0526316,4.0625 C15.5269555,3.52345045 15.8153737,2.81160994 15.8153737,2.03125 C15.8153737,1.25089006 15.5269555,0.53904955 15.0526316,0 L22.0060289,0 C24.2118382,0 26,1.81884324 26,4.0625 L26,12.1875 C26,14.4311568 24.2118382,16.25 22.0060289,16.25 L15.1341971,16.25 Z" id="mark"></path>
            </g>
        </g>
    </g>
</svg>