<?xml version="1.0" encoding="UTF-8"?>
<svg width="36px" height="36px" viewBox="0 0 36 36" version="1.1" xmlns="http://www.w3.org/2000/svg" xmlns:xlink="http://www.w3.org/1999/xlink">
    <!-- Generator: Sketch 50.2 (55047) - http://www.bohemiancoding.com/sketch -->
    <title>twitter</title>
    <desc>Created with Sketch.</desc>
    <defs></defs>
    <g id="Page-1" stroke="none" stroke-width="1" fill="none" fill-rule="evenodd">
        <g id="iPhone-8" transform="translate(-144.000000, -338.000000)" fill="#33383A">
            <g id="twitter" transform="translate(148.000000, 345.000000)">
                <g id="Group-2">
                    <path d="M9.36058892,22.3934086 C19.4729174,22.3934086 25.0028424,14.0156665 25.0028424,6.75115511 C25.0028424,6.51309565 24.998019,6.27610805 24.9870861,6.04040668 C26.0604438,5.26448934 26.9936026,4.29628084 27.729754,3.19387583 C26.7446102,3.63140789 25.6845435,3.92638296 24.5724918,4.05929324 C25.7075884,3.37887837 26.5790082,2.30187637 26.9899582,1.01822033 C25.9275335,1.64793637 24.7513847,2.1059409 23.4991341,2.35257521 C22.4959831,1.28404089 21.0671976,0.615630815 19.4862084,0.615630815 C16.4498516,0.615630815 13.9876888,3.07779371 13.9876888,6.11297141 C13.9876888,6.54450107 14.0360295,6.96391874 14.1302457,7.36650826 C9.56124057,7.13680929 5.50962081,4.9490418 2.79835832,1.62253336 C2.32577654,2.43478665 2.0538464,3.37887837 2.0538464,4.38567372 C2.0538464,6.29315058 3.02441298,7.97693087 4.50025299,8.96196752 C3.59860682,8.93420643 2.7513038,8.68639307 2.010329,8.27415684 C2.00904277,8.29709458 2.00904277,8.32013951 2.00904277,8.34425629 C2.00904277,11.007178 3.90440764,13.2299952 6.41973465,13.7340896 C5.95808581,13.8597113 5.47210581,13.9274526 4.9704767,13.9274526 C4.61633512,13.9274526 4.27184025,13.8924029 3.9369921,13.8283059 C4.63691477,16.0125362 6.66636897,17.6019931 9.07290248,17.6467967 C7.19093582,19.1213505 4.82063108,20.0000589 2.24485133,20.0000589 C1.80120968,20.0000589 1.36367762,19.9747631 0.933327004,19.9239571 C3.36654976,21.4831876 6.25541896,22.3934086 9.36058892,22.3934086" id="Fill-2"></path>
                </g>
            </g>
        </g>
    </g>
</svg>